# xmcd
#
# Track frame offsets: 
#        150
#        24052
#        51260
#        68605
#        97410
#        117002
#        139395
#        165867
#
# Disc length: 2646 seconds
#
# Revision: 4
# Processed by: cddbd v1.5.2PL0 Copyright (c) Steve Scherf et al.
# Submitted via: ExactAudioCopy v0.99pb3
#
DISCID=620a5408
DTITLE=Lucifer's Friend - I'm Just A Rock 'n' Roll Singer
DYEAR=1974
DGENRE=Hard Rock
TTITLE0=Groovin' Stone
TTITLE1=Closed Curtains
TTITLE2=Born On The Run
TTITLE3=Blind Freedom
TTITLE4=Rock 'n' Roll Singer
TTITLE5=Lonely City Days
TTITLE6=Mary's Breakdown
TTITLE7=Song For Louie
EXTD=
EXTT0=
EXTT1=
EXTT2=
EXTT3=
EXTT4=
EXTT5=
EXTT6=
EXTT7=
PLAYORDER=
